<?xml version="1.0" encoding="UTF-8" standalone="no"?>
<!DOCTYPE svg PUBLIC "-//W3C//DTD SVG 1.1//EN" "http://www.w3.org/Graphics/SVG/1.1/DTD/svg11.dtd">
<svg xmlns:xl="http://www.w3.org/1999/xlink" xmlns:dc="http://purl.org/dc/elements/1.1/" version="1.1" xmlns="http://www.w3.org/2000/svg" viewBox="717 420 256 256" width="256" height="256">
  <defs/>
  <metadata> Produced by OmniGraffle 7.18.5\n2021-06-24 13:16:11 +0000</metadata>
  <g id="Final-intersect_(dark)_MASTER" stroke-dasharray="none" stroke="none" fill="none" fill-opacity="1" stroke-opacity="1">
    <title>Final-intersect (dark) MASTER</title>
    <rect fill="#333" x="717" y="420" width="256" height="256"/>
    <g id="Final-intersect_(dark)_MASTER_Letters">
      <title>Letters</title>
      <g id="Graphic_32">
        <path d="M 829.7031 543.78133 C 850.6112 545.32 866.1337 550.52436 876.271 559.3945 C 886.4083 568.2646 891.4768 579.3521 891.4768 592.65725 C 891.4768 604.2427 888.0374 614.22144 881.1586 622.59374 C 874.2797 630.96605 865.4776 636.4419 854.752 639.0215 C 844.0264 641.60105 829.6579 642.8908 811.6462 642.8908 L 739.4184 642.8908 L 739.4184 636.6456 L 746.4783 636.6456 C 754.3528 636.6456 759.806 635.64996 762.8381 633.6587 C 765.8703 631.66746 767.7936 628.5675 768.6082 624.3587 C 769.4228 620.1499 769.8301 610.3522 769.8301 594.9653 L 769.8301 505.35944 C 769.8301 490.42505 769.4002 480.78574 768.5403 476.4412 C 767.6805 472.09664 765.8703 469.1098 763.1097 467.4806 C 760.3491 465.8514 754.3075 465.0368 744.98485 465.0368 L 741.4549 465.0368 L 741.4549 458.79155 L 771.7308 457.97695 L 806.2155 456.8908 C 856.5399 456.8908 881.7016 471.37243 881.7016 500.3361 C 881.7016 512.2836 877.3798 521.87765 868.736 529.11856 C 860.0921 536.3595 847.0813 541.247 829.7031 543.78133 Z M 796.4403 541.2018 C 798.7031 541.2923 800.6038 541.33754 802.1425 541.33754 C 821.693 541.33754 835.0432 538.2602 842.1936 532.1054 C 849.344 525.95065 852.9192 515.99454 852.9192 502.2368 C 852.9192 492.6426 851.5163 485.2208 848.7104 479.9711 C 845.9045 474.72145 841.6958 470.67113 836.0841 467.82 C 830.4724 464.9689 820.8784 463.5434 807.3016 463.5434 C 803.7717 463.5434 800.1513 463.67914 796.4403 463.9507 Z M 796.4403 547.8543 L 796.4403 588.8558 C 796.4403 606.3245 796.7571 617.412 797.3907 622.11856 C 798.0243 626.82515 799.7213 630.4003 802.4819 632.8441 C 805.2425 635.2879 810.6958 636.5098 818.8418 636.5098 C 833.3236 636.5098 844.1848 632.7989 851.4257 625.37695 C 858.6666 617.955 862.287 606.8223 862.287 591.9784 C 862.287 576.7725 858.1915 565.5719 850.0002 558.3762 C 841.8089 551.1806 827.3952 547.5828 806.7586 547.5828 C 803.5002 547.5828 800.0608 547.6733 796.4403 547.8543 Z" fill="white"/>
      </g>
    </g>
    <g id="Final-intersect_(dark)_MASTER_Nodes">
      <title>Nodes</title>
      <g id="Graphic_28">
        <circle cx="929.75" cy="620.298" r="15.7500251669548" fill="#ccc"/>
      </g>
      <g id="Graphic_27">
        <circle cx="929.75" cy="479.5596" r="15.7500251669548" fill="#ccc"/>
      </g>
      <g id="Graphic_40">
        <circle cx="769" cy="465.6" r="20.0000319580379" fill="#ccc"/>
      </g>
      <g id="Graphic_43">
        <circle cx="801.4954" cy="634.8954" r="17.6954396679368" fill="#ccc"/>
      </g>
      <g id="Graphic_50">
        <circle cx="929.75" cy="573.3852" r="15.7500251669548" fill="#ccc"/>
      </g>
      <g id="Graphic_51">
        <circle cx="929.75" cy="526.4724" r="15.7500251669548" fill="#ccc"/>
      </g>
    </g>
    <g id="Final-intersect_(dark)_MASTER_Lines_3_(vect)">
      <title>Lines 3 (vect)</title>
      <g id="Graphic_168">
        <path d="M 788.8119 468.5178 L 901.9809 479.44615 L 902.1731 477.4554 L 789.0041 466.5271 Z M 909.7215 479.189 L 902.3538 475.5841 L 901.8002 481.31745 Z M 910.161 478.29073 L 902.7933 474.6859 L 901.4972 474.0517 L 901.3585 475.488 L 900.8048 481.2213 L 900.6661 482.65765 L 902.0597 482.2832 L 909.981 480.1547 L 912.5563 479.4627 Z M 909.282 480.0872 L 909.462 478.22324 L 901.5407 480.3517 L 902.7956 481.41357 L 903.3492 475.68024 L 901.9143 476.48236 Z" fill="#ccc"/>
      </g>
      <g id="Graphic_169">
        <path d="M 787.2554 473.8428 L 902.4204 519.0652 L 903.1514 517.2036 L 787.9864 471.98116 Z M 909.9345 520.9415 L 903.8385 515.45367 L 901.7332 520.8151 Z M 910.6036 520.1983 L 904.5076 514.71046 L 903.4352 513.745 L 902.9077 515.08816 L 900.8024 520.4496 L 900.275 521.7928 L 901.7178 521.815 L 909.9191 521.94136 L 912.5854 521.98244 Z M 909.2654 521.6847 L 909.9499 519.9416 L 901.7486 519.81525 L 902.664 521.18064 L 904.7694 515.8192 L 903.1695 516.1969 Z" fill="#ccc"/>
      </g>
      <g id="Graphic_170">
        <path d="M 815.1088 623.546 L 905.6654 538.9464 L 904.3001 537.4849 L 813.7435 622.08455 Z M 910.5948 532.9728 L 903.0167 536.11114 L 906.9488 540.32016 Z M 910.2121 532.0489 L 902.634 535.18723 L 901.3008 535.73936 L 902.2859 536.7938 L 906.2181 541.0028 L 907.2032 542.0573 L 907.8446 540.76467 L 911.4905 533.4173 L 912.6759 531.02856 Z M 910.9774 533.8967 L 909.699 532.5283 L 906.053 539.87565 L 907.6795 539.6375 L 903.7474 535.4285 L 903.3993 537.03505 Z" fill="#ccc"/>
      </g>
      <g id="Graphic_171">
        <path d="M 784.6688 478.0744 L 903.5023 563.3468 L 904.6683 561.72186 L 785.8348 476.4495 Z M 910.325 567.01183 L 905.7644 560.1944 L 902.4062 564.8742 Z M 911.1562 566.4558 L 906.5955 559.6384 L 905.7932 558.439 L 904.9519 559.6114 L 901.5938 564.2912 L 900.7525 565.4636 L 902.1456 565.8397 L 910.0644 567.9773 L 912.6389 568.67224 Z M 909.4939 567.56786 L 910.5856 566.0464 L 902.6668 563.9088 L 903.2187 565.45724 L 906.5768 560.77744 L 904.9332 560.75046 Z" fill="#ccc"/>
      </g>
      <g id="Graphic_172">
        <path d="M 817.7003 627.7052 L 903.6934 583.5851 L 902.7805 581.80565 L 816.7873 625.92576 Z M 910.0701 579.18955 L 901.9223 580.13296 L 904.5516 585.2578 Z M 909.955 578.1962 L 901.8072 579.1396 L 900.3738 579.3056 L 901.0325 580.58945 L 903.6619 585.7143 L 904.3206 586.9982 L 905.2915 585.9306 L 910.8099 579.86234 L 912.604 577.8895 Z M 910.1851 580.1829 L 909.3302 578.51675 L 903.8118 584.585 L 905.4414 584.8013 L 902.812 579.6765 L 902.0373 581.1263 Z" fill="#ccc"/>
      </g>
      <g id="Graphic_173">
        <path d="M 819.1712 633.58205 L 902.25 622.6685 L 901.9895 620.6855 L 818.9107 631.5991 Z M 909.7343 620.6767 L 901.7446 618.82154 L 902.4948 624.5325 Z M 909.9605 619.7026 L 901.9708 617.84745 L 900.5652 617.5211 L 900.7531 618.9518 L 901.5033 624.6627 L 901.6913 626.0934 L 902.9649 625.4151 L 910.2044 621.55934 L 912.558 620.3058 Z M 909.5081 621.6508 L 909.2642 619.7941 L 902.0247 623.64985 L 903.4863 624.4022 L 902.7361 618.6913 L 901.5184 619.7956 Z" fill="#ccc"/>
      </g>
    </g>
    <g id="Final-intersect_(dark)_MASTER_Intersects">
      <title>Intersects</title>
      <g id="Graphic_175">
        <path d="M 750.277 458.5542 C 749.4858 460.66026 749.0623 462.87296 749.0064 465.0932 C 756.0674 465.3031 760.7684 466.0989 763.1097 467.4806 C 765.8703 469.1098 767.6805 472.09664 768.5403 476.4412 C 768.9295 478.4077 769.23065 481.459 769.4437 485.5951 C 774.4132 485.48554 779.3497 483.53454 783.1421 479.7421 C 789.1596 473.72474 790.541 464.82694 787.2865 457.487 L 771.7308 457.97695 Z" fill="#333"/>
      </g>
      <g id="Graphic_176">
        <path d="M 785.704 642.8908 L 811.6462 642.8908 C 813.5757 642.8908 815.4634 642.876 817.3093 642.8464 C 818.3161 640.84485 818.9188 638.692 819.1175 636.50935 C 819.0258 636.50965 818.9338 636.5098 818.8418 636.5098 C 810.6958 636.5098 805.2425 635.2879 802.4819 632.8441 C 799.7213 630.4003 798.0243 626.82515 797.3907 622.11856 C 797.2428 621.0196 797.1121 619.5727 796.9987 617.7779 C 794.062 618.54644 791.2843 620.0814 788.9829 622.3829 C 783.4334 627.93234 782.3404 636.2507 785.704 642.8908 Z" fill="#333"/>
      </g>
      <g id="Graphic_177">
        <path d="M 873.7579 476.72076 C 873.1273 475.96486 872.4591 475.23057 871.7534 474.5179 L 841.9319 471.63813 C 842.779 472.3431 843.5772 473.08994 844.3263 473.87865 Z M 796.4403 469.2545 L 796.4403 467.24517 L 789.0041 466.5271 L 788.8119 468.5178 Z" fill="#333"/>
      </g>
      <g id="Graphic_178">
        <path d="M 880.5307 510.4697 C 880.6912 509.819 880.8352 509.1593 880.9627 508.4906 L 852.7919 497.42866 C 852.8313 498.1426 852.8616 498.8707 852.8827 499.613 Z M 796.4403 477.4495 L 796.4403 475.3008 L 787.9864 471.98116 L 787.2554 473.8428 Z" fill="#333"/>
      </g>
      <g id="Graphic_179">
        <path d="M 862.1706 533.68805 C 862.8047 533.31977 863.4233 532.9431 864.0264 532.5581 L 849.4245 522.0801 C 849.1514 522.7102 848.8623 523.3233 848.5572 523.9194 Z M 796.4403 486.5214 L 796.4403 484.0598 L 785.8348 476.4495 L 784.6688 478.0744 Z" fill="#333"/>
      </g>
      <g id="Graphic_181">
        <path d="M 879.9613 562.9596 C 879.5096 562.4759 879.0445 561.998 878.5662 561.52596 L 860.9041 578.0263 C 861.0701 578.7828 861.2213 579.55394 861.3574 580.3397 Z" fill="#333"/>
      </g>
      <g id="Graphic_182">
        <path d="M 891.4021 589.8914 C 891.3623 589.1637 891.3066 588.443 891.235 587.7292 L 861.5283 602.9707 C 861.404 603.80724 861.2645 604.6281 861.1097 605.4334 Z" fill="#333"/>
      </g>
      <g id="Graphic_183">
        <path d="M 878.2756 625.81786 C 878.9936 625.0808 879.6936 624.3165 880.3754 623.52484 L 848.9518 627.65276 C 847.8736 628.5424 846.73 629.365 845.521 630.1206 Z" fill="#333"/>
      </g>
    </g>
  </g>
</svg>
